<?xml version="1.0" encoding="utf-8"?>
<!-- Generator: Adobe Illustrator 22.0.1, SVG Export Plug-In . SVG Version: 6.00 Build 0)  -->
<svg version="1.1" id="Layer_1" xmlns="http://www.w3.org/2000/svg" xmlns:xlink="http://www.w3.org/1999/xlink" x="0px" y="0px"
	 viewBox="0 0 22 22" style="enable-background:new 0 0 22 22;" xml:space="preserve">
<style type="text/css">
	.st0{fill:#F7DB52;}
</style>
<g>
	<path class="st0" d="M11,22c2.1,0,3.9-0.8,5.3-2.2s2.2-3.2,2.2-5.3c0-2.8-3.3-7.8-5.6-11c-0.5-0.7-0.9-1.4-1.3-2
		c-0.1-0.1-0.1-0.2-0.2-0.2c-0.3-0.2-0.8-0.1-1,0.2c-0.4,0.6-0.8,1.2-1.3,2c-2.2,3.3-5.6,8.2-5.6,11.1c0,2.1,0.8,3.9,2.2,5.3
		C7.1,21.2,8.9,22,11,22z M10.3,4.3c0.3-0.4,0.5-0.7,0.7-1c0.2,0.3,0.5,0.7,0.7,1c2.1,3.2,5.3,7.9,5.3,10.2c0,1.7-0.7,3.2-1.8,4.3
		c-1.1,1.1-2.6,1.8-4.3,1.8s-3.2-0.7-4.3-1.8C5.6,17.7,5,16.2,5,14.5C5,12.1,8.2,7.4,10.3,4.3z"/>
	<path class="st0" d="M13.5,18.9c0.8-0.4,1.4-1,1.8-1.8c0.5-0.7,0.7-1.6,0.7-2.4c0-0.4-0.3-0.7-0.7-0.8c-0.4,0-0.7,0.3-0.8,0.7
		c0,0.6-0.2,1.2-0.5,1.7c-0.3,0.5-0.8,1-1.3,1.2c-0.3,0.2-0.5,0.7-0.3,1C12.7,19,13.2,19.1,13.5,18.9z"/>
</g>
</svg>
