<?xml version="1.0" encoding="utf-8"?>
<!-- Generator: Adobe Illustrator 22.0.1, SVG Export Plug-In . SVG Version: 6.00 Build 0)  -->
<svg version="1.1" id="Layer_1" xmlns="http://www.w3.org/2000/svg" xmlns:xlink="http://www.w3.org/1999/xlink" x="0px" y="0px"
	 viewBox="0 0 22 22" style="enable-background:new 0 0 22 22;" xml:space="preserve">
<style type="text/css">
	.st0{fill:#0F4372;}
</style>
<g>
	<g>
		<path class="st0" d="M20.5,20.2c0,0,0-0.1,0-0.1c0,0,0,0,0,0c0,0,0-0.1-0.1-0.1c0,0,0,0,0,0c0,0,0,0,0,0l-2.4-2.1V8.1
			c0-3.8-3.1-6.9-6.9-6.9c-3.8,0-6.9,3.1-6.9,6.9v9.7l-2.4,2.1c0,0,0,0,0,0c0,0,0,0,0,0c0,0,0,0,0,0.1c0,0,0,0,0,0c0,0,0,0.1,0,0.1
			c0,0,0,0,0,0v1.5c0,0.2,0.2,0.4,0.4,0.4h18.3c0.2,0,0.4-0.2,0.4-0.4L20.5,20.2C20.5,20.2,20.5,20.2,20.5,20.2L20.5,20.2z M4.8,8.1
			c0-3.4,2.8-6.2,6.2-6.2s6.2,2.8,6.2,6.2v9.5H4.8V8.1z M4.6,18.3h12.9l1.7,1.5H2.9L4.6,18.3z M19.8,21.3H2.2v-0.7h17.5V21.3z
			 M19.8,21.3"/>
		<path class="st0" d="M13.9,6.3h-1.8V4.8c0-0.2-0.2-0.4-0.4-0.4h-1.5c-0.2,0-0.4,0.2-0.4,0.4v1.5H8.1c-0.2,0-0.4,0.2-0.4,0.4v1.5
			c0,0.2,0.2,0.4,0.4,0.4h1.8v4.4c0,0.2,0.2,0.4,0.4,0.4h1.5c0.2,0,0.4-0.2,0.4-0.4V8.5h1.8c0.2,0,0.4-0.2,0.4-0.4V6.7
			C14.3,6.5,14.1,6.3,13.9,6.3L13.9,6.3z M13.6,7.7h-1.8c-0.2,0-0.4,0.2-0.4,0.4v4.4h-0.7V8.1c0-0.2-0.2-0.4-0.4-0.4H8.4V7h1.8
			c0.2,0,0.4-0.2,0.4-0.4V5.2h0.7v1.5c0,0.2,0.2,0.4,0.4,0.4h1.8V7.7z M13.6,7.7"/>
	</g>
</g>
</svg>
