<?xml version="1.0" encoding="utf-8"?>
<!-- Generator: Adobe Illustrator 22.0.1, SVG Export Plug-In . SVG Version: 6.00 Build 0)  -->
<svg version="1.1" id="Layer_1" xmlns="http://www.w3.org/2000/svg" xmlns:xlink="http://www.w3.org/1999/xlink" x="0px" y="0px"
	 viewBox="0 0 22 22" style="enable-background:new 0 0 22 22;" xml:space="preserve">
<style type="text/css">
	.st0{fill:#F7DB52;}
</style>
<g>
	<g>
		<path class="st0" d="M5.6,5.7c-1.8,0-3.1,0.5-4.1,1.5C0.4,8.4-0.2,10.4,0,13.1c0.1,2.1,1.3,3.2,2.2,3.7c0,0,0.1,0,0.1,0.1
			c-0.9,0.5-1.6,1.5-1.6,2.6v2.1c0,0.3,0.2,0.5,0.5,0.5h9c0.3,0,0.5-0.2,0.5-0.5v-2.1c0-1.1-0.6-2.1-1.6-2.6c0,0,0.1,0,0.1-0.1
			c1-0.5,2.1-1.6,2.2-3.7c0.1-2.6-0.4-4.6-1.6-5.9C8.8,6.2,7.4,5.7,5.6,5.7L5.6,5.7z M4.9,17.4c0.3,0,0.5-0.2,0.5-0.5v-0.8
			c0.1,0,0.2,0,0.3,0c0.1,0,0.2,0,0.3,0v0.8c0,0.3,0.2,0.5,0.5,0.5h0.5l-1.2,1.2l-1.2-1.2H4.9z M6.9,16.5L6.9,16.5l0-0.5
			c0.2,0,0.3-0.1,0.5-0.2C7.2,16.1,7,16.3,6.9,16.5L6.9,16.5z M8.2,14.2c-0.7,0.7-1.6,1.1-2.6,1.1c-1,0-1.9-0.4-2.6-1.1
			c-0.4-1-0.4-2.1-0.1-3c0.1,0,0.2,0,0.3,0c0,0,0.7-0.2,2.4-0.2c1.7,0,2.4,0.2,2.4,0.2c0.1,0,0.2,0,0.3,0
			C8.6,12.1,8.6,13.1,8.2,14.2L8.2,14.2z M4.5,16v0.5h0c-0.1-0.1-0.3-0.3-0.5-0.6C4.1,15.9,4.3,16,4.5,16L4.5,16z M9.7,19.4v1.7H1.6
			v-1.7c0-1,0.7-1.8,1.6-2l2.1,2.1c0.1,0.1,0.2,0.1,0.3,0.1c0.1,0,0.2,0,0.3-0.1l2.1-2.1C9,17.6,9.7,18.4,9.7,19.4L9.7,19.4z
			 M10.4,13c-0.1,1.9-1.3,2.8-2.2,3.2c0.3-0.4,0.6-0.9,0.8-1.5c0,0,0,0,0-0.1c0,0,0,0,0,0c0.5-1.5,0.7-3.6-1-5.8
			C7.9,8.6,7.8,8.5,7.6,8.5c-0.1,0-0.2,0-0.3,0.1C7.2,8.8,7.1,9,7.3,9.2c0.1,0.2,0.3,0.5,0.4,0.9c-0.4-0.1-1.1-0.1-2-0.1
			c-0.9,0-1.6,0.1-2,0.1C3.8,9.7,4,9.4,4,9.2C4.2,9,4.1,8.8,3.9,8.6C3.7,8.5,3.4,8.5,3.3,8.7c-1.8,2.2-1.5,4.4-1,5.8c0,0,0,0,0,0
			c0,0,0,0,0,0.1c0.2,0.6,0.5,1.1,0.8,1.5c-0.2-0.1-0.3-0.1-0.5-0.2c-1.1-0.6-1.7-1.6-1.7-2.9c-0.1-2.4,0.3-4.1,1.3-5.2
			C3,7,4.1,6.6,5.6,6.6c1.5,0,2.7,0.4,3.5,1.2C10.1,8.9,10.6,10.6,10.4,13L10.4,13z M10.4,13"/>
	</g>
	<path class="st0" d="M19.1,15.8h-0.8v-0.6c1.7-0.6,2.9-2.2,2.9-4.1c0-0.1,0-1.5,0-1.5c0-1-0.3-1.9-1-2.6c-0.8-0.8-2-1.2-3.4-1.2h0
		c-2.6,0-4.4,1.5-4.4,3.8c0,0,0,1.4,0,1.5c0,1.9,1.2,3.5,2.9,4.1v0.6h-0.8c-1.6,0-2.9,1.3-2.9,2.9v2.8c0,0.3,0.2,0.5,0.5,0.5h9.6
		c0.3,0,0.5-0.2,0.5-0.5v-2.8C22.1,17.1,20.7,15.8,19.1,15.8L19.1,15.8z M13.3,9.7c0-2.1,1.9-2.9,3.5-2.9h0c1.1,0,2.1,0.3,2.7,1
		c0.5,0.5,0.7,1.1,0.7,1.9v0.7c-2.3-0.2-4.8-1.8-4.9-1.8c-0.1,0-0.2-0.1-0.2-0.1c0,0-0.1,0-0.1,0c-0.1,0-0.2,0.1-0.3,0.3
		c0,0-0.5,1.2-1.4,1.6V9.7z M13.3,11.2c1-0.2,1.7-1.1,2-1.7c0.9,0.5,2.9,1.6,4.9,1.7c-0.1,1.9-1.6,3.4-3.5,3.4
		C14.9,14.6,13.3,13.1,13.3,11.2L13.3,11.2z M16.8,15.5c0.2,0,0.4,0,0.6,0v0.3h-1.2v-0.3C16.4,15.5,16.6,15.5,16.8,15.5L16.8,15.5z
		 M18.1,16.7l-1.3,2.1l-1.3-2.1H18.1z M21.2,21.1h-8.7v-2.3c0-1.1,0.9-2,2-2l2,3.2c0.1,0.1,0.2,0.2,0.4,0.2c0.2,0,0.3-0.1,0.4-0.2
		l2-3.2c1.1,0,2,0.9,2,2L21.2,21.1L21.2,21.1z M21.2,21.1"/>
</g>
</svg>
