<?xml version="1.0" encoding="utf-8"?>
<!-- Generator: Adobe Illustrator 22.0.1, SVG Export Plug-In . SVG Version: 6.00 Build 0)  -->
<svg version="1.1" id="Layer_1" xmlns="http://www.w3.org/2000/svg" xmlns:xlink="http://www.w3.org/1999/xlink" x="0px" y="0px"
	 viewBox="0 0 22 22" style="enable-background:new 0 0 22 22;" xml:space="preserve">
<style type="text/css">
	.st0{fill:#F7DB52;}
</style>
<g>
	<path class="st0" d="M16.8,7.8C16.8,4.6,14.2,2,11,2S5.2,4.6,5.2,7.8c0,2,1,3.7,2.5,4.8c-1.4,0.5-2.7,1.3-3.8,2.4
		C2,16.8,1,19.3,1,22h1.6c0-4.6,3.8-8.4,8.4-8.4C14.2,13.6,16.8,11,16.8,7.8z M11,12c-2.3,0-4.2-1.9-4.2-4.2S8.7,3.6,11,3.6
		s4.2,1.9,4.2,4.2S13.3,12,11,12z"/>
	<polygon class="st0" points="17.7,17.2 17.7,13.9 16.2,13.9 16.2,17.2 12.9,17.2 12.9,18.7 16.2,18.7 16.2,22 17.7,22 17.7,18.7 
		21,18.7 21,17.2 	"/>
</g>
</svg>
