<?xml version="1.0" encoding="utf-8"?>
<!-- Generator: Adobe Illustrator 22.0.1, SVG Export Plug-In . SVG Version: 6.00 Build 0)  -->
<svg version="1.1" id="Layer_1" xmlns="http://www.w3.org/2000/svg" xmlns:xlink="http://www.w3.org/1999/xlink" x="0px" y="0px"
	 viewBox="0 0 22 22" style="enable-background:new 0 0 22 22;" xml:space="preserve">
<style type="text/css">
	.st0{fill:#0F4372;}
</style>
<path class="st0" d="M17.7,15.3c-1-1-2.3-1.8-3.6-2.3c1.4-1,2.4-2.6,2.4-4.5C16.5,5.5,14,3,11,3S5.5,5.5,5.5,8.5
	c0,1.9,1,3.5,2.4,4.5c-1.3,0.5-2.6,1.2-3.6,2.3c-1.8,1.8-2.8,4.2-2.8,6.7H3c0-4.4,3.6-8,8-8s8,3.6,8,8h1.5
	C20.5,19.5,19.5,17.1,17.7,15.3z M7,8.5c0-2.2,1.8-4,4-4s4,1.8,4,4s-1.8,4-4,4S7,10.7,7,8.5z"/>
</svg>
