<?xml version="1.0" encoding="utf-8"?>
<!-- Generator: Adobe Illustrator 22.0.1, SVG Export Plug-In . SVG Version: 6.00 Build 0)  -->
<svg version="1.1" id="Layer_1" xmlns="http://www.w3.org/2000/svg" xmlns:xlink="http://www.w3.org/1999/xlink" x="0px" y="0px"
	 viewBox="0 0 22 22" style="enable-background:new 0 0 22 22;" xml:space="preserve">
<style type="text/css">
	.st0{fill:#0F4372;}
</style>
<g>
	<g>
		<g>
			<path class="st0" d="M5.5,1v7.4H3.1l-1.3,8V22h18.5v-5.6l-1.3-8h-2.4V1H5.5z M13.5,12.1c0.4-0.5,0.6-1.2,0.6-1.8
				c0-1.7-1.4-3.1-3.1-3.1s-3.1,1.4-3.1,3.1c0,0.7,0.2,1.3,0.6,1.8H6.7V4.6c1.2-0.2,2.2-1.2,2.4-2.4h3.8c0.2,1.2,1.2,2.2,2.4,2.4
				v7.5H13.5z M9.2,10.2c0-1,0.8-1.8,1.8-1.8s1.8,0.8,1.8,1.8S12,12.1,11,12.1S9.2,11.3,9.2,10.2L9.2,10.2z M15.3,3.3
				c-0.5-0.2-0.9-0.6-1.1-1.1h1.1V3.3z M7.8,2.2C7.6,2.7,7.2,3.1,6.7,3.3V2.2H7.8z M3,20.8V17h16v3.7H3z M17.9,9.6l1,6.2H3.1l1-6.2
				h1.3v2.5H4.2v1.2h13.6v-1.2h-1.2V9.6H17.9z M17.9,9.6"/>
		</g>
		<path class="st0" d="M11,6.1l-0.9-0.9L11,4.4l0.9,0.9L11,6.1z M11,6.1"/>
	</g>
</g>
</svg>
