<?xml version="1.0" encoding="utf-8"?>
<!-- Generator: Adobe Illustrator 22.0.1, SVG Export Plug-In . SVG Version: 6.00 Build 0)  -->
<svg version="1.1" id="Layer_1" xmlns="http://www.w3.org/2000/svg" xmlns:xlink="http://www.w3.org/1999/xlink" x="0px" y="0px"
	 viewBox="0 0 22 22" style="enable-background:new 0 0 22 22;" xml:space="preserve">
<style type="text/css">
	.st0{fill:#0F4372;}
</style>
<g>
	<g>
		<path class="st0" d="M9.8,22H14c1.3,0,2.6-0.6,3.4-1.7l2.9-3.8c0.9-1.2,0-2.9-1.4-2.9c-0.5,0-1,0.2-1.3,0.6l-1.8,1.9
			c-0.2-0.7-0.9-1.3-1.7-1.3h-1.6c-0.4,0-0.8-0.1-1.1-0.4c-0.8-0.7-2.2-0.7-2.8-0.7s-2,0.1-2.8,0.7l-0.5,0.4h-4v6h4.1
			C6.1,21,8.6,22,9.8,22z M8.6,14.8c1,0,1.7,0.2,2,0.4c0.5,0.4,1.2,0.7,1.8,0.7H14c0.3,0,0.6,0.3,0.6,0.6s-0.3,0.6-0.6,0.6h-3.1v1.2
			h3.5c0.5,0,1-0.2,1.3-0.6l2.6-2.8c0.1-0.1,0.3-0.2,0.4-0.2c0.5,0,0.8,0.6,0.5,1l-2.9,3.8c-0.6,0.8-1.5,1.2-2.4,1.2H9.8
			c-0.8,0-2.6-0.6-3.6-1v-4.1l0.4-0.4C6.9,15.1,7.6,14.8,8.6,14.8z M5,19.6H2.6V16H5V19.6z"/>
		<path class="st0" d="M13.4,2.7c-0.5-0.6-1.3-1.2-2.7-1.2c-1.9,0-3.3,1.6-3.3,3.6c0,2.3,2.1,4,4.2,5.9c0.4,0.4,0.9,0.8,1.4,1.2
			l0.4,0.4l0.4-0.4c0.5-0.4,0.9-0.8,1.4-1.2c2.3-2,4.2-3.6,4.2-5.9c0-2-1.4-3.6-3.3-3.6C14.7,1.5,13.9,2.1,13.4,2.7z M18.2,5.1
			c0,1.6-1.4,2.9-3.8,5c-0.3,0.3-0.7,0.6-1,0.9c-0.3-0.3-0.7-0.6-1-0.9C10,8,8.6,6.8,8.6,5.1c0-1.4,0.9-2.4,2.1-2.4
			c1.6,0,2.1,1.2,2.1,1.3l0.5,1.5L14,4c0,0,0.5-1.3,2.1-1.3C17.3,2.7,18.2,3.7,18.2,5.1z"/>
	</g>
</g>
</svg>
