<?xml version="1.0" encoding="utf-8"?>
<!-- Generator: Adobe Illustrator 22.0.1, SVG Export Plug-In . SVG Version: 6.00 Build 0)  -->
<svg version="1.1" id="Layer_1" xmlns="http://www.w3.org/2000/svg" xmlns:xlink="http://www.w3.org/1999/xlink" x="0px" y="0px"
	 viewBox="0 0 22 22" style="enable-background:new 0 0 22 22;" xml:space="preserve">
<style type="text/css">
	.st0{fill:#F7DB52;}
</style>
<g>
	<path class="st0" d="M19.7,9.4l1-1c0.6-0.6,0.7-1.5,0.2-2.2c-0.2-0.3-0.5-0.5-0.9-0.6l0.3-0.3c0.6-0.6,0.7-1.7,0.1-2.3
		c-0.2-0.3-0.5-0.4-0.9-0.5c0,0,0,0,0-0.1c0-0.4-0.2-0.9-0.5-1.2c-0.7-0.7-1.7-0.7-2.4,0l-0.3,0.3c-0.1-0.3-0.2-0.5-0.4-0.7
		c-0.7-0.7-1.7-0.7-2.4,0l-3.3,3.3c0.2-0.7,0-1.5-0.6-1.9C9.2,1.9,8.8,1.8,8.3,1.9C7.9,2,7.5,2.2,7.2,2.6L5.3,5.4
		C4.6,6.5,4.2,7.8,4.2,9.1l0,0.7c0,0.7-0.3,1.3-0.7,1.8l-2.5,2.5c-0.2,0.2-0.2,0.4,0,0.6c0.1,0.1,0.2,0.1,0.3,0.1s0.2,0,0.3-0.1
		L4,12.2c0.6-0.6,1-1.5,1-2.4l0-0.7C5,8,5.4,6.9,6,5.9l1.9-2.8C8,2.9,8.2,2.8,8.5,2.7c0.2,0,0.5,0,0.7,0.1C9.5,3.1,9.6,3.6,9.4,4
		L8.6,5.2C8.5,5.5,8.5,5.8,8.8,6C9,6.2,9.3,6.2,9.6,6l4.6-4.6c0.3-0.3,0.9-0.3,1.2,0c0.3,0.3,0.3,0.8,0.1,1.1L13,4.9
		c-0.2,0.2-0.2,0.4,0,0.6c0.2,0.2,0.4,0.2,0.6,0l3.6-3.6c0.3-0.3,0.9-0.3,1.2,0c0.2,0.2,0.2,0.4,0.2,0.6S18.6,2.9,18.4,3l-4.7,4.7
		c-0.2,0.2-0.2,0.4,0,0.6c0.1,0.1,0.2,0.1,0.3,0.1s0.2,0,0.3-0.1l3.4-3.4c0.3-0.3,0.8-0.2,1.1,0.1c0.3,0.3,0.3,0.9,0,1.2l-3.4,3.4
		c-0.2,0.2-0.2,0.4,0,0.6c0.2,0.2,0.4,0.2,0.6,0l1.4-1.4c0.3-0.3,0.8-0.2,1.1,0.1c0.2,0.2,0.2,0.4,0.2,0.6s-0.1,0.4-0.2,0.6
		l-3.8,3.8c-1.1,1.1-2.5,1.7-4,1.7c0,0,0,0,0,0c-0.9,0-1.8,0.4-2.4,1l-3.7,3.7c-0.2,0.2-0.2,0.4,0,0.6c0.1,0.1,0.2,0.1,0.3,0.1
		s0.2,0,0.3-0.1L8.9,17c0.5-0.5,1.1-0.7,1.8-0.7h0c1.7,0,3.4-0.7,4.6-1.9l3.8-3.8c0.1-0.1,0.2-0.2,0.2-0.3c0.2,0,0.3,0.1,0.4,0.2
		c0.3,0.3,0.3,0.9,0,1.2L16,15.5c-1.1,1.1-2.5,1.7-4,1.7c0,0,0,0,0,0c-0.9,0-1.8,0.4-2.4,1l-3.1,3.1c-0.2,0.2-0.2,0.4,0,0.6
		C6.5,22,6.6,22,6.7,22c0.1,0,0.2,0,0.3-0.1l3.1-3.1c0.5-0.5,1.1-0.7,1.8-0.7h0c1.8,0,3.4-0.7,4.6-1.9l3.8-3.8
		c0.3-0.3,0.5-0.7,0.5-1.2c0-0.4-0.2-0.9-0.5-1.2C20.2,9.7,20,9.5,19.7,9.4z M18.7,3.9L19,3.6c0.1-0.1,0.2-0.2,0.2-0.3
		c0.2,0,0.3,0.1,0.5,0.3c0.3,0.3,0.2,0.8,0,1.1c-0.1-0.1-0.2-0.2-0.3-0.3C19.2,4.2,19,4,18.7,3.9z M18.5,7.7l1-1
		c0.1-0.1,0.2-0.2,0.2-0.3c0.2,0,0.4,0.2,0.5,0.3c0.2,0.3,0.2,0.8-0.1,1.1l-0.6,0.6c-0.1-0.1-0.2-0.2-0.3-0.3
		C19,8,18.7,7.8,18.5,7.7z"/>
</g>
</svg>
